<?xml version="1.0" encoding="utf-8"?>
<!-- Generator: Adobe Illustrator 22.0.0, SVG Export Plug-In . SVG Version: 6.00 Build 0)  -->
<svg version="1.1" id="Layer_1" xmlns="http://www.w3.org/2000/svg" xmlns:xlink="http://www.w3.org/1999/xlink" x="0px" y="0px"
	 viewBox="0 0 100.2 90.8" style="enable-background:new 0 0 100.2 90.8;" xml:space="preserve">
<style type="text/css">
	.st0{fill:#F5333F;}
</style>
<path class="st0" d="M90,40c-3.2-0.9-6.4-1.4-6.5-1.4c-0.1,0-0.1,0-0.2,0h-9.9l-3.3-5.2h3.9c0.9,0,1.6-0.7,1.6-1.6V27
	c0-0.9-0.7-1.6-1.6-1.6h-4.8c-0.2,0-0.4,0-0.6,0.1c-0.9,0.3-1.8,0.8-2.6,1.4l-5.1-8.2h3.5c0.9,0,1.6-0.7,1.6-1.6v-4.6
	c0-0.9-0.7-1.6-1.6-1.6h-4.6c-0.2,0-0.4,0-0.6,0.1c-0.8,0.3-1.7,0.7-2.4,1.3l-4.4-7c-0.2-0.3-0.4-0.5-0.8-0.6l-8.7-3.5
	c-0.6-0.2-1.2-0.1-1.7,0.3c-0.5,0.4-0.6,1-0.5,1.6l10.4,35.4h-29c-0.1,0-0.2,0-0.3,0c-0.1,0-1.9,0.4-4,1l-6.3-12.3
	c-0.3-0.5-0.8-0.9-1.4-0.9H4.1c-0.5,0-1,0.2-1.3,0.6c-0.3,0.4-0.4,0.9-0.3,1.4l3.8,15.7H4.3c-0.9,0-1.6,0.7-1.6,1.6s0.7,1.6,1.6,1.6
	h2.1L2.6,62.8c-0.1,0.5,0,1,0.3,1.4c0.3,0.4,0.8,0.6,1.3,0.6h6.1c0.6,0,1.2-0.3,1.4-0.9l6.2-12.1c2.3,0.5,4.1,0.8,4.2,0.8
	c0.1,0,0.2,0,0.2,0h29L40.8,88c-0.2,0.6,0,1.2,0.5,1.6c0.3,0.3,0.7,0.4,1.1,0.4c0.2,0,0.4,0,0.6-0.1l8.7-3.5
	c0.3-0.1,0.6-0.3,0.8-0.6l4.4-7c0.7,0.5,1.6,1,2.4,1.3c0.2,0.1,0.4,0.1,0.6,0.1h4.6c0.9,0,1.6-0.7,1.6-1.6v-4.6
	c0-0.9-0.7-1.6-1.6-1.6h-3.5l5.1-8.2c0.8,0.6,1.7,1,2.6,1.4c0.2,0.1,0.4,0.1,0.6,0.1h4.8c0.9,0,1.6-0.7,1.6-1.6v-4.8
	c0-0.9-0.7-1.6-1.6-1.6h-3.9l3.2-5.1h9.9c0.1,0,0.2,0,0.2,0c0.1,0,3.3-0.5,6.5-1.4c5.1-1.5,7.5-3.2,7.5-5.5
	C97.4,42.5,93.2,40.9,90,40z M88.7,48.3c-2.6,0.7-5.1,1.1-5.6,1.2H72.4h-2.7H67h-8.1h-3.2h-3.2H22.4c-1.1-0.2-2.1-0.4-3.1-0.6
	l0.8-1.6H22c0.9,0,1.6-0.7,1.6-1.6s-0.7-1.6-1.6-1.6h-1.8l-0.8-1.6c1.4-0.4,2.6-0.7,3-0.7h30.2h3.2H59h7.9h2.7h2.7h10.9
	c0.6,0.1,3.3,0.5,6,1.3c4.2,1.2,5.1,2.3,5.1,2.6C94.2,45.8,93.5,47,88.7,48.3z M62.8,75.7V77h-2.6c-0.4-0.2-0.9-0.4-1.2-0.6
	c0.3-0.2,0.8-0.5,1.3-0.7H62.8z M50.5,82.8L68,52.7h1.5L50.5,82.8z M65.4,52.7L46.6,85l-1.8,0.7l9.8-33H65.4z M14.7,51L9.2,61.6h-3
	l3.3-13.5l0.2-0.8h1.3H14h2.5l-0.4,0.8l-0.7,1.4L14.7,51z M9.2,29.7l5.6,11l0.7,1.4l0.7,1.4l0.3,0.6h-1.8h-3.3H9.6l-0.1-0.4l-3.4-14
	H9.2z M50,7.6l19.6,31H68L50,7.6L50,7.6z M62.8,14.2v1.4h-2.6c-0.5-0.2-0.9-0.5-1.3-0.7c0.3-0.2,0.8-0.4,1.2-0.6H62.8z M46.5,6.2
	l18.9,32.4H54.6L44.8,5.5L46.5,6.2z M72.3,28.6v1.6h-2.8c-0.5-0.3-1-0.6-1.4-0.8c0.4-0.2,0.9-0.5,1.4-0.7H72.3z M69.5,61h2.8v1.6
	h-2.8c-0.5-0.2-1-0.5-1.4-0.7C68.5,61.6,69,61.3,69.5,61z"/>
</svg>
