<?xml version="1.0" encoding="utf-8"?>
<!-- Generator: Adobe Illustrator 22.0.0, SVG Export Plug-In . SVG Version: 6.00 Build 0)  -->
<svg version="1.1" id="Layer_1" xmlns="http://www.w3.org/2000/svg" xmlns:xlink="http://www.w3.org/1999/xlink" x="0px" y="0px"
	 viewBox="0 0 46.2 26.9" style="enable-background:new 0 0 46.2 26.9;" xml:space="preserve">
<style type="text/css">
	.st0{fill:#F5333F;}
</style>
<g>
	<g>
		<path class="st0" d="M16.1,10.3h-1.9c-0.1,0-0.1,0-0.2,0L10.1,9C9.9,8.9,9.7,8.7,9.8,8.4c0.1-0.3,0.4-0.4,0.6-0.3l3.8,1.2h1.8
			c0.3,0,0.5,0.2,0.5,0.5C16.6,10.1,16.3,10.3,16.1,10.3z"/>
	</g>
	<g>
		<path class="st0" d="M6.6,20.1c-0.1,0-0.1,0-0.2,0L2,18.5c-0.3-0.1-0.4-0.4-0.3-0.6L6.3,4.3c0-0.1,0.1-0.2,0.3-0.3
			c0.1-0.1,0.3-0.1,0.4,0l4.4,1.5c0.3,0.1,0.4,0.4,0.3,0.6L7.8,17.5l0,0l-0.7,2.2C7,19.9,6.9,20,6.8,20C6.7,20.1,6.7,20.1,6.6,20.1z
			 M2.8,17.7l3.5,1.2l4.3-12.7L7.1,5.1L2.8,17.7z M7.3,17.4L7.3,17.4L7.3,17.4z"/>
	</g>
	<g>
		<path class="st0" d="M40.3,20.1c-0.1,0-0.2,0-0.2-0.1c-0.1-0.1-0.2-0.2-0.3-0.3l-0.7-2c0,0,0,0,0,0L35.2,6.1
			c-0.1-0.3,0.1-0.5,0.3-0.6L39.9,4c0.1,0,0.3,0,0.4,0c0.1,0.1,0.2,0.2,0.3,0.3l4.6,13.6c0.1,0.3-0.1,0.5-0.3,0.6L40.4,20
			C40.4,20.1,40.3,20.1,40.3,20.1z M40.1,17.4l0.5,1.5l3.5-1.2L39.8,5.1l-3.5,1.2L40.1,17.4z"/>
	</g>
	<g>
		<path class="st0" d="M24.5,25.3c-0.3,0-0.6,0-0.9-0.1c-4.8-0.7-15.9-7.1-16.4-7.4C7,17.7,6.9,17.4,7,17.2c0.1-0.2,0.4-0.3,0.7-0.2
			c0.1,0.1,11.4,6.6,16,7.3c3.2,0.6,9.5-3.2,9.9-5c0-0.1,0-0.1,0-0.1c-0.2-1.2-5.4-5.8-9.1-8.8H22c-0.3,0-0.5-0.2-0.5-0.5
			c0-0.3,0.2-0.5,0.5-0.5h2.7c0.1,0,0.2,0,0.3,0.1c1.6,1.2,9.3,7.6,9.6,9.6c0,0.2,0,0.3,0,0.5C34.1,21.8,28.2,25.3,24.5,25.3z"/>
	</g>
	<g>
		<path class="st0" d="M33.1,21.2c-0.1,0-0.1,0-0.2,0c-2.4-1-5.3-3.3-5.5-3.4c-0.2-0.2-0.3-0.5-0.1-0.7c0.2-0.2,0.5-0.3,0.7-0.1
			c0,0,3,2.3,5.2,3.3c0.3,0.1,0.4,0.4,0.3,0.7C33.5,21.1,33.3,21.2,33.1,21.2z"/>
	</g>
	<g>
		<path class="st0" d="M30,23.2c-0.1,0-0.1,0-0.2,0c-2.4-1-6.1-3.8-6.3-4c-0.2-0.2-0.3-0.5-0.1-0.7c0.2-0.2,0.5-0.3,0.7-0.1
			c0,0,3.8,2.9,6,3.8c0.3,0.1,0.4,0.4,0.3,0.7C30.4,23,30.2,23.2,30,23.2z"/>
	</g>
	<g>
		<path class="st0" d="M26.2,24.8c-0.1,0-0.1,0-0.2,0c-2.4-1-4.1-2.6-4.2-2.7c-0.2-0.2-0.2-0.5,0-0.7c0.2-0.2,0.5-0.2,0.7,0
			c0,0,1.7,1.5,3.9,2.5c0.3,0.1,0.4,0.4,0.3,0.7C26.6,24.7,26.4,24.8,26.2,24.8z"/>
	</g>
	<g>
		<path class="st0" d="M17.1,14.1c-0.3,0-0.5-0.1-0.5-0.1c-0.1,0-0.1,0-0.2-0.1c-0.1-0.1-1.5-1.3-0.8-4.3c0.1-0.6,0.4-1.2,0.6-1.8
			c2-4.3,7.5-3.4,7.6-3.4l12,2.6c0.3,0.1,0.4,0.3,0.4,0.6c-0.1,0.3-0.3,0.4-0.6,0.4l-12-2.6c-0.2,0-4.9-0.8-6.5,2.8
			c-0.3,0.6-0.5,1.1-0.6,1.6c-0.5,2,0.1,2.9,0.4,3.2c0.4,0,2.3,0,4.7-3.6c0.2-0.2,0.5-0.3,0.7-0.1c0.2,0.2,0.3,0.5,0.1,0.7
			C20.1,13.6,18,14.1,17.1,14.1z"/>
	</g>
	<g>
		<path class="st0" d="M34.2,19.9c-0.2,0-0.4-0.1-0.5-0.3c-0.1-0.3,0.1-0.5,0.3-0.6l4.9-1.7c0.3-0.1,0.5,0.1,0.6,0.3
			c0.1,0.3-0.1,0.5-0.3,0.6l-4.9,1.7C34.3,19.9,34.2,19.9,34.2,19.9z"/>
	</g>
</g>
</svg>
