<?xml version="1.0" encoding="utf-8"?>
<!-- Generator: Adobe Illustrator 22.0.0, SVG Export Plug-In . SVG Version: 6.00 Build 0)  -->
<svg version="1.1" id="Layer_1" xmlns="http://www.w3.org/2000/svg" xmlns:xlink="http://www.w3.org/1999/xlink" x="0px" y="0px"
	 viewBox="0 0 39.5 37.9" style="enable-background:new 0 0 39.5 37.9;" xml:space="preserve">
<style type="text/css">
	.st0{fill:#F5333F;}
</style>
<g id="Element_1_">
	<path class="st0" d="M31.6,16.7h-1.9c-1.5-3.7-4.8-6.4-8.8-7.1V7.8c0,0,0,0,0,0c1.1-0.7,1.8-1.9,1.8-3.3c0-2.2-1.8-4-4-4
		c-2.2,0-4,1.8-4,4c0,1.4,0.8,2.7,1.9,3.4v1.7C9.5,10.7,5.5,18.2,5,22.4c0,0.2,0,0.4,0.2,0.5c0.1,0.1,0.3,0.2,0.5,0.2
		c0.6,0,1.1,0,1.6,0c0.8,6.1,5.6,14.4,11.6,14.4c3,0,6-2.1,8.4-5.8c1.2-1.9,2.1-4,2.7-6.1h1.6c1.6,0,2.9-1.3,2.9-2.9v-3
		C34.6,18.1,33.3,16.7,31.6,16.7z M18.8,1.8c1.5,0,2.7,1.2,2.7,2.7c0,1.5-1.2,2.7-2.7,2.7s-2.7-1.2-2.7-2.7
		C16.1,3,17.3,1.8,18.8,1.8z M18,8.3c0.3,0.1,0.5,0.1,0.8,0.1c0.3,0,0.6,0,0.9-0.1v1.1l-1.1,0c0,0,0,0,0,0c-0.2,0-0.4,0-0.6,0V8.3z
		 M6.4,21.8c0.9-4.2,5.1-11.1,12.2-11.1l1.4,0.1c3.9,0.4,7.1,2.9,8.5,6.3l-1.2,0.4c-3.1,1.1-6.5-0.1-8.4-2.8
		c-0.1-0.2-0.4-0.3-0.7-0.3c-0.3,0.1-0.5,0.3-0.5,0.5C17.4,16.6,16.5,21.6,6.4,21.8z M18.9,36.2c-5.3,0-9.6-7.7-10.3-13.2
		c1-0.1,1.9-0.3,2.8-0.5c0.2,1.6,1.5,2.8,3.1,2.8c1.7,0,3.2-1.4,3.2-3.2c0-0.4-0.3-0.6-0.6-0.6c-0.4,0-0.6,0.3-0.6,0.6
		c0,1-0.8,1.9-1.9,1.9c-1,0-1.9-0.8-1.9-1.9c0,0,0,0,0-0.1c3.1-1,5.1-2.9,6-5.6c2.3,2.4,5.8,3.3,9.1,2.2l1.2-0.4
		c0.3,0.9,0.4,1.9,0.4,2.9c0,1.2-0.2,2.6-0.6,4c-0.4,0.6-2.6,3.8-6.2,5c-0.3-0.4-0.8-0.7-1.3-0.7c-0.9,0-1.7,0.7-1.7,1.7
		c0,0.1,0,0.3,0.1,0.4c-0.2,0-0.3,0-0.5,0c-1.2,0-2.3-0.5-2.7-1.2c-0.2-0.3-0.6-0.4-0.9-0.2c-0.3,0.2-0.4,0.6-0.2,0.9
		c0.7,1.1,2.2,1.9,3.8,1.9c0.5,0,1-0.1,1.4-0.2c0,0,0,0,0,0c0.2,0.1,0.4,0.1,0.6,0.1c0.8,0,1.5-0.6,1.6-1.4c1.9-0.6,3.4-1.7,4.5-2.7
		C25.5,32.7,22.4,36.2,18.9,36.2z M33.3,22.7c0,0.9-0.7,1.6-1.6,1.6h-1.3c0.2-1.1,0.3-2.1,0.3-3.1c0-1.1-0.1-2.2-0.4-3.2h1.4
		c0.9,0,1.6,0.7,1.6,1.6V22.7z"/>
	<path class="st0" d="M23.2,25.3c1.7,0,3.2-1.4,3.2-3.2c0-0.4-0.3-0.6-0.6-0.6c-0.4,0-0.6,0.3-0.6,0.6c0,1-0.8,1.9-1.9,1.9
		c-1,0-1.9-0.8-1.9-1.9c0-0.4-0.3-0.6-0.6-0.6c-0.4,0-0.6,0.3-0.6,0.6C20.1,23.9,21.5,25.3,23.2,25.3z"/>
</g>
</svg>
