<?xml version="1.0" encoding="utf-8"?>
<!-- Generator: Adobe Illustrator 22.0.0, SVG Export Plug-In . SVG Version: 6.00 Build 0)  -->
<svg version="1.1" id="Layer_1" xmlns="http://www.w3.org/2000/svg" xmlns:xlink="http://www.w3.org/1999/xlink" x="0px" y="0px"
	 viewBox="0 0 33.9 34.3" style="enable-background:new 0 0 33.9 34.3;" xml:space="preserve">
<style type="text/css">
	.st0{fill:#F5333F;}
</style>
<g id="XMLID_31_">
	<g id="XMLID_68_">
		<path id="XMLID_69_" class="st0" d="M20.4,32.3c-0.6,0-1.2-0.1-1.8-0.2C18,32.1,17.5,32,16.9,32c-0.5,0-1.1,0.1-1.6,0.2
			c-1.1,0.2-2.2,0.3-3.2,0c-1.1-0.4-1.9-1.2-2.7-1.9c-0.4-0.4-0.8-0.8-1.2-1.1c-0.4-0.3-0.9-0.5-1.4-0.8c-1-0.5-2-1-2.6-2
			c-0.7-0.9-0.9-2-1-3.1c-0.1-0.6-0.2-1.1-0.3-1.6c-0.1-0.5-0.4-0.9-0.6-1.4c-0.5-0.9-1-2-1-3.2c0-1.2,0.5-2.2,1-3.2
			c0.2-0.5,0.5-1,0.6-1.4c0.2-0.5,0.2-1,0.3-1.6c0.2-1.1,0.4-2.2,1-3.1c0.7-0.9,1.7-1.4,2.6-2c0.5-0.3,1-0.5,1.4-0.8
			C8.6,4.8,9,4.5,9.4,4.1c0.8-0.8,1.6-1.6,2.7-1.9c1.1-0.3,2.2-0.2,3.2,0c0.6,0.1,1.1,0.2,1.6,0.2c0.5,0,1.1-0.1,1.6-0.2
			c1.1-0.2,2.2-0.3,3.2,0c1.1,0.4,1.9,1.2,2.7,1.9c0.4,0.4,0.8,0.8,1.2,1.1c0.4,0.3,0.9,0.5,1.4,0.8c1,0.5,2,1,2.6,2
			c0.7,0.9,0.9,2,1,3.1c0.1,0.6,0.2,1.1,0.3,1.6c0.1,0.5,0.4,0.9,0.6,1.4c0.5,0.9,1,2,1,3.2c0,1.2-0.5,2.2-1,3.2
			c-0.2,0.5-0.5,1-0.6,1.4c-0.2,0.5-0.2,1-0.3,1.6c-0.2,1.1-0.4,2.2-1,3.1c-0.7,0.9-1.7,1.4-2.6,2c-0.5,0.3-1,0.5-1.4,0.8
			c-0.4,0.3-0.8,0.7-1.2,1.1c-0.8,0.8-1.6,1.6-2.7,1.9C21.3,32.3,20.9,32.3,20.4,32.3z M13.5,3.5c-0.3,0-0.6,0-0.9,0.1
			c-0.8,0.2-1.4,0.9-2.1,1.5C10.1,5.6,9.6,6,9.1,6.4C8.6,6.7,8.1,7,7.6,7.3C6.7,7.7,5.9,8.2,5.5,8.8C5,9.4,4.9,10.3,4.7,11.2
			c-0.1,0.6-0.2,1.2-0.4,1.8c-0.2,0.6-0.5,1.1-0.7,1.6c-0.4,0.9-0.8,1.7-0.8,2.5c0,0.8,0.4,1.6,0.8,2.5c0.3,0.5,0.5,1.1,0.7,1.6
			c0.2,0.6,0.3,1.2,0.4,1.8C4.9,24,5,24.8,5.5,25.5c0.5,0.6,1.3,1,2.1,1.5c0.5,0.3,1.1,0.6,1.6,0.9c0.5,0.4,0.9,0.8,1.3,1.2
			c0.7,0.7,1.3,1.3,2.1,1.5c0.7,0.2,1.6,0.1,2.5,0c0.6-0.1,1.2-0.2,1.9-0.2c0.6,0,1.3,0.1,1.9,0.2c0.9,0.1,1.8,0.3,2.5,0
			c0.8-0.2,1.4-0.9,2.1-1.5c0.4-0.4,0.9-0.8,1.3-1.2c0.5-0.4,1-0.6,1.6-0.9c0.8-0.4,1.6-0.8,2.1-1.5c0.5-0.6,0.6-1.5,0.8-2.4
			c0.1-0.6,0.2-1.2,0.4-1.8c0.2-0.6,0.5-1.1,0.7-1.6c0.4-0.9,0.8-1.7,0.8-2.5c0-0.8-0.4-1.6-0.8-2.5c-0.3-0.5-0.5-1.1-0.7-1.6
			c-0.2-0.6-0.3-1.2-0.4-1.8c-0.2-0.9-0.3-1.8-0.8-2.4c-0.5-0.6-1.3-1-2.1-1.5c-0.5-0.3-1.1-0.6-1.6-0.9c-0.5-0.4-0.9-0.8-1.3-1.2
			c-0.7-0.7-1.3-1.3-2.1-1.5c-0.7-0.2-1.6-0.1-2.5,0c-0.6,0.1-1.2,0.2-1.9,0.2c-0.6,0-1.3-0.1-1.9-0.2C14.5,3.6,14,3.5,13.5,3.5z"/>
	</g>
	<g id="XMLID_36_">
		<path id="XMLID_65_" class="st0" d="M16.9,28.8c-6.4,0-11.6-5.2-11.6-11.6S10.5,5.5,16.9,5.5c6.4,0,11.6,5.2,11.6,11.6
			S23.3,28.8,16.9,28.8z M16.9,7.1c-5.5,0-10.1,4.5-10.1,10.1c0,5.5,4.5,10.1,10.1,10.1c5.5,0,10.1-4.5,10.1-10.1
			C27,11.6,22.5,7.1,16.9,7.1z"/>
	</g>
	<g id="XMLID_32_">
		<path id="XMLID_33_" class="st0" d="M21.4,24c-0.2,0-0.3-0.1-0.5-0.2l-4-2.9l-4,2.9c-0.3,0.2-0.6,0.2-0.9,0
			c-0.3-0.2-0.4-0.6-0.3-0.9l1.5-4.7l-4-2.9C9,15.2,8.9,14.9,9,14.5C9.1,14.2,9.4,14,9.7,14h4.9l1.5-4.7c0.1-0.3,0.4-0.5,0.7-0.5
			c0.3,0,0.6,0.2,0.7,0.5l1.5,4.7h4.9c0.3,0,0.6,0.2,0.7,0.5c0.1,0.3,0,0.7-0.3,0.9l-4,2.9l1.5,4.7c0.1,0.3,0,0.7-0.3,0.9
			C21.7,24,21.5,24,21.4,24z M16.9,19.2c0.2,0,0.3,0.1,0.5,0.2l2.5,1.8l-0.9-2.9c-0.1-0.3,0-0.7,0.3-0.9l2.5-1.8h-3.1
			c-0.3,0-0.6-0.2-0.7-0.5l-0.9-2.9L16,15c-0.1,0.3-0.4,0.5-0.7,0.5h-3.1l2.5,1.8c0.3,0.2,0.4,0.6,0.3,0.9L14,21.2l2.5-1.8
			C16.6,19.3,16.8,19.2,16.9,19.2z"/>
	</g>
</g>
</svg>
