<?xml version="1.0" encoding="utf-8"?>
<!-- Generator: Adobe Illustrator 22.0.0, SVG Export Plug-In . SVG Version: 6.00 Build 0)  -->
<svg version="1.1" id="Layer_1" xmlns="http://www.w3.org/2000/svg" xmlns:xlink="http://www.w3.org/1999/xlink" x="0px" y="0px"
	 viewBox="0 0 89.7 86.1" style="enable-background:new 0 0 89.7 86.1;" xml:space="preserve">
<style type="text/css">
	.st0{fill:#F5333F;}
</style>
<path class="st0" d="M85.5,35.8H75.3c-0.1-0.1-0.2-0.2-0.4-0.3L51.2,24.1c0.3-0.7,0.5-1.5,0.5-2.4c0-2.9-2-5.4-4.7-6.1v-3l5.9-8
	C53.2,4.2,53.2,3.6,53,3c-0.3-0.5-0.8-0.9-1.4-0.9H39.2c-0.6,0-1.2,0.3-1.4,0.9c-0.3,0.5-0.2,1.2,0.1,1.7l5.9,8v4c0,0.1,0,0.1,0,0.2
	c0,0,0,0.1,0,0.1c0,0.9,0.7,1.6,1.6,1.6c1.7,0,3.1,1.4,3.1,3.1c0,1.7-1.4,3.1-3.1,3.1c-0.6,0-1.2-0.2-1.7-0.5l0,0
	c-0.1,0-0.1-0.1-0.2-0.2c-0.1-0.1-0.2-0.2-0.3-0.3c-0.1-0.2-0.3-0.3-0.4-0.5c-0.4-0.8-1.4-1-2.2-0.6c-0.6,0.4-0.9,1.1-0.7,1.8
	l-22.9,11c-0.1,0.1-0.3,0.2-0.4,0.3H6.4c-0.9,0-1.6,0.7-1.6,1.6v4.5c0,0.9,0.7,1.6,1.6,1.6h1.9v31.6H6.4c-0.9,0-1.6,0.7-1.6,1.6v4.5
	c0,0.9,0.7,1.6,1.6,1.6h79.1c0.9,0,1.6-0.7,1.6-1.6v-4.5c0-0.9-0.7-1.6-1.6-1.6h-1.9V43.5h1.9c0.9,0,1.6-0.7,1.6-1.6v-4.5
	C87.1,36.5,86.4,35.8,85.5,35.8z M42.3,5.3h6.1l-3,4.1L42.3,5.3z M83.9,79.6H8v-1.3h75.9V79.6z M11.4,43.5h3.7v31.6h-3.7V43.5z
	 M73,75.1h-4.5V43.5H73V75.1z M18.8,43.5h4.5v31.6h-4.5V43.5z M64.7,75.1h-4.5V43.5h4.5V75.1z M56.4,75.1h-4.5V43.5h4.5V75.1z
	 M48.2,75.1h-4.5V43.5h4.5V75.1z M39.9,75.1h-4.5V43.5h4.5V75.1z M31.7,75.1h-4.5V43.5h4.5V75.1z M80.4,75.1h-3.7V43.5h3.7V75.1z
	 M83.9,40.3h-1.6H9.6H8V39h75.9V40.3z M42,27c1,0.7,2.2,1,3.4,1c1.4,0,2.8-0.5,3.8-1.3l18.9,9.1H23.7L42,27z"/>
</svg>
