<?xml version="1.0" encoding="utf-8"?>
<!-- Generator: Adobe Illustrator 22.0.0, SVG Export Plug-In . SVG Version: 6.00 Build 0)  -->
<svg version="1.1" id="Layer_1" xmlns="http://www.w3.org/2000/svg" xmlns:xlink="http://www.w3.org/1999/xlink" x="0px" y="0px"
	 viewBox="0 0 33.9 34.3" style="enable-background:new 0 0 33.9 34.3;" xml:space="preserve">
<style type="text/css">
	.st0{fill:#F5333F;}
</style>
<g id="Element_5_">
	<circle class="st0" cx="6.4" cy="12.6" r="1.1"/>
	<circle class="st0" cx="6.4" cy="17.6" r="1.1"/>
	<path class="st0" d="M6.4,21.6c-0.6,0-1.1,0.5-1.1,1.1c0,0.6,0.5,1.1,1.1,1.1c0.6,0,1.1-0.5,1.1-1.1C7.5,22.1,7,21.6,6.4,21.6z"/>
	<circle class="st0" cx="6.4" cy="27.7" r="1.1"/>
	<path class="st0" d="M8.7,12.6c0,0.3,0.3,0.6,0.6,0.6h10.1c0.3,0,0.6-0.3,0.6-0.6c0-0.3-0.3-0.6-0.6-0.6H9.4
		C9,11.9,8.7,12.2,8.7,12.6z"/>
	<path class="st0" d="M19.4,17H9.4c-0.3,0-0.6,0.3-0.6,0.6c0,0.3,0.3,0.6,0.6,0.6h10.1c0.3,0,0.6-0.3,0.6-0.6
		C20.1,17.3,19.8,17,19.4,17z"/>
	<path class="st0" d="M19.4,22.1H9.4c-0.3,0-0.6,0.3-0.6,0.6c0,0.3,0.3,0.6,0.6,0.6h10.1c0.3,0,0.6-0.3,0.6-0.6
		C20.1,22.3,19.8,22.1,19.4,22.1z"/>
	<path class="st0" d="M19.4,27.1H9.4c-0.3,0-0.6,0.3-0.6,0.6c0,0.3,0.3,0.6,0.6,0.6h10.1c0.3,0,0.6-0.3,0.6-0.6
		C20.1,27.4,19.8,27.1,19.4,27.1z"/>
	<path class="st0" d="M23,6.2C23,6.2,23,6.2,23,6.2C23,6.2,23,6.1,23,6.2c-0.1-0.1-0.1-0.1-0.1-0.1c0,0,0,0-0.1,0c0,0,0,0,0,0
		c0,0,0,0-0.1,0c0,0,0,0,0,0c0,0,0,0,0,0c0,0-0.1,0-0.1,0c0,0,0,0,0,0c0,0-0.1,0-0.1,0c0,0,0,0,0,0c0,0-0.1,0-0.1,0c0,0,0,0,0,0
		c0,0-0.1,0-0.1,0c0,0,0,0,0,0c0,0-0.1,0-0.1,0.1c0,0,0,0,0,0c0,0,0,0,0,0c0,0,0,0-0.1,0.1c0,0,0,0,0,0c0,0,0,0,0,0l-1.6,2.2
		c-0.2,0.3-0.1,0.7,0.1,0.9c0.3,0.2,0.7,0.1,0.9-0.1l0.5-0.6v23.6H3.7V7.2h4v1.2C7.6,8.8,7.9,9,8.3,9h9.9c0.3,0,0.6-0.3,0.6-0.6V4.2
		c0-0.3-0.3-0.6-0.6-0.6h-1.7c-0.3-1.5-1.7-2.7-3.3-2.7c-1.6,0-3,1.2-3.3,2.7H8.3c-0.3,0-0.6,0.3-0.6,0.6V6H3.1
		C2.7,6,2.4,6.2,2.4,6.6v26.2c0,0.3,0.3,0.6,0.6,0.6h19.5c0.3,0,0.6-0.3,0.6-0.6V8.4l0.5,0.6c0.1,0.2,0.3,0.2,0.5,0.2
		c0.1,0,0.3,0,0.4-0.1c0.3-0.2,0.3-0.6,0.1-0.9L23,6.2z M8.9,4.9h1.6c0.3,0,0.6-0.3,0.6-0.6c0-1.2,0.9-2.1,2.1-2.1
		c1.2,0,2.1,0.9,2.1,2.1c0,0.3,0.3,0.6,0.6,0.6h1.6v2.9H8.9V4.9z"/>
	<path class="st0" d="M31.4,9.8l-1.6-3.1V6.2c0-0.3-0.3-0.6-0.6-0.6c-0.3,0-0.6,0.3-0.6,0.6v0.5l-1.6,3.1c0,0.1-0.1,0.2-0.1,0.3
		v16.8H26v-7.2h-1.2v7.8c0,0.3,0.3,0.6,0.6,0.6h1.5v4.7c0,0.3,0.3,0.6,0.6,0.6h3.3c0.3,0,0.6-0.3,0.6-0.6v-5.3V10.1
		C31.4,10,31.4,9.9,31.4,9.8z M28.1,10.2l1-2l1,2v16.6h-1.4h-0.7V10.2z M30.2,32.1h-2.1v-4h0.7h1.4V32.1z"/>
</g>
</svg>
