<?xml version="1.0" encoding="utf-8"?>
<!-- Generator: Adobe Illustrator 22.0.0, SVG Export Plug-In . SVG Version: 6.00 Build 0)  -->
<svg version="1.1" id="Layer_1" xmlns="http://www.w3.org/2000/svg" xmlns:xlink="http://www.w3.org/1999/xlink" x="0px" y="0px"
	 viewBox="0 0 39.5 37.9" style="enable-background:new 0 0 39.5 37.9;" xml:space="preserve">
<style type="text/css">
	.st0{fill:#F5333F;}
</style>
<g id="Element_3_">
	<path class="st0" d="M7.7,30c0.1,0.3,0.4,0.5,0.7,0.5c0.1,0,0.2,0,0.2,0C9,30.3,9.2,29.9,9,29.5L5,17.7c2.3-0.1,8-0.8,14-5.1v15.8
		c0,0.4,0.3,0.7,0.7,0.7c0.4,0,0.7-0.3,0.7-0.7V12.6c6,4.3,11.7,5,14,5.1L31.4,27c-0.1,0.4,0.1,0.8,0.5,0.9c0.4,0.1,0.8-0.1,0.9-0.5
		l3.5-10.3c0.1-0.2,0-0.5-0.1-0.7c-0.1-0.2-0.4-0.3-0.6-0.3c0,0-0.6,0-1.5-0.1V8.6c0-0.4-0.3-0.7-0.7-0.7h-3.7V5h-1.5v2.8h-3.7
		c-0.4,0-0.7,0.3-0.7,0.7v4.3c-1.1-0.6-2.2-1.4-3.3-2.2V5.5c0-0.4-0.3-0.7-0.7-0.7H6.6c-0.4,0-0.7,0.3-0.7,0.7v5.6v5
		c-1.2,0.1-1.9,0.1-1.9,0.1c-0.2,0-0.5,0.1-0.6,0.3c-0.1,0.2-0.2,0.4-0.1,0.7L7.7,30z M25.1,9.3h3h1.5h3V16
		c-1.9-0.3-4.5-0.9-7.5-2.3V9.3z M18.9,6.2v4.2H7.4V6.2H18.9z M7.4,11.9h10.2c-3.9,2.6-7.6,3.6-10.2,4.1V11.9z"/>
	<path class="st0" d="M35.8,30.2l-0.7-0.3c-4.8-2.2-10.2-2.2-15,0l-0.7,0.3l-0.6,0.2c-4.6,1.8-9.7,1.7-14.3-0.1l-0.4-0.1
		c-0.4-0.1-0.8,0-0.9,0.4c-0.1,0.4,0,0.8,0.4,0.9l0.4,0.1c2.5,1,5.1,1.5,7.8,1.5c2.6,0,5.1-0.5,7.6-1.4l0.6-0.2c0,0,0,0,0,0l0.7-0.3
		c4.4-2,9.4-2,13.8,0l0.7,0.3c0.4,0.2,0.8,0,1-0.4C36.4,30.8,36.2,30.3,35.8,30.2z"/>
	<path class="st0" d="M23.1,16.6c-0.4-0.1-0.8,0.1-0.9,0.5c-0.1,0.4,0.1,0.8,0.5,0.9l2.7,0.9c0.1,0,0.2,0,0.2,0
		c0.3,0,0.6-0.2,0.7-0.5c0.1-0.4-0.1-0.8-0.5-0.9L23.1,16.6z"/>
	<path class="st0" d="M16.4,16.6l-2.7,0.9c-0.4,0.1-0.6,0.5-0.5,0.9c0.1,0.3,0.4,0.5,0.7,0.5c0.1,0,0.2,0,0.2,0l2.7-0.9
		c0.4-0.1,0.6-0.5,0.5-0.9C17.2,16.7,16.8,16.5,16.4,16.6z"/>
	<rect x="26.8" y="10.4" class="st0" width="3.9" height="1.5"/>
</g>
</svg>
