<?xml version="1.0" encoding="utf-8"?>
<!-- Generator: Adobe Illustrator 22.0.0, SVG Export Plug-In . SVG Version: 6.00 Build 0)  -->
<svg version="1.1" id="Layer_1" xmlns="http://www.w3.org/2000/svg" xmlns:xlink="http://www.w3.org/1999/xlink" x="0px" y="0px"
	 viewBox="0 0 33.9 34.3" style="enable-background:new 0 0 33.9 34.3;" xml:space="preserve">
<style type="text/css">
	.st0{fill:#F5333F;}
</style>
<g>
	<g>
		<path class="st0" d="M18.5,25L18.5,25c-0.4,0-0.8-0.3-1-0.7l-0.3-0.8c-0.8,0.1-1.7,0.1-2.4-0.1c-0.4-0.1-0.7-0.5-0.7-1l0-1.2
			c0-0.3,0.2-0.6,0.4-0.8c0.2-0.2,0.6-0.2,0.9-0.2c0.6,0.2,1.4,0.1,2-0.1c0.3-0.1,0.6-0.3,0.7-0.5c0.1-0.2,0.1-0.3,0.1-0.5
			c-0.1-0.2-0.2-0.6-1.6-0.6C15,18.5,13,18.1,12.3,16c-0.5-1.6,0-3.1,1.4-4.2l-0.3-0.9c-0.1-0.3-0.1-0.5,0.1-0.8
			c0.1-0.2,0.3-0.4,0.6-0.5l1-0.3c0.1,0,0.2,0,0.3,0c0.4,0,0.8,0.3,1,0.7l0.2,0.7c0.6-0.1,1.2-0.1,1.8,0.1c0.5,0.1,0.8,0.5,0.8,1
			L19,13c0,0.3-0.2,0.6-0.4,0.7c-0.2,0.2-0.5,0.2-0.8,0.2c-0.1,0-0.4-0.1-0.7-0.1c-0.3,0-0.7,0.1-1,0.2c-0.5,0.2-0.7,0.4-0.6,0.7
			c0.1,0.2,0.1,0.4,1.8,0.5c1.5,0.1,3.6,0.5,4.4,2.8c0.5,1.6,0,3.3-1.4,4.3l0.3,1c0.2,0.5-0.1,1.1-0.6,1.3l-1,0.3
			C18.7,25,18.6,25,18.5,25z M17.6,22.7c0.2,0,0.3,0.1,0.4,0.3l0.4,1.1c0,0.1,0.1,0.2,0.2,0.2l0,0c0,0,0.1,0,0.1,0l1-0.3
			c0.1,0,0.2-0.2,0.2-0.3l-0.4-1.2c-0.1-0.2,0-0.3,0.1-0.4c1.3-0.9,1.8-2.3,1.4-3.7c-0.6-1.9-2.2-2.2-3.7-2.3
			c-1.5-0.1-2.2-0.3-2.4-1c-0.2-0.5,0-1.3,1.1-1.7c0.4-0.1,0.8-0.2,1.3-0.2c0.4,0,0.7,0.1,0.9,0.1c0.1,0,0.1,0,0.2,0
			c0.1,0,0.1-0.1,0.1-0.2l0.1-1.2c0-0.1-0.1-0.2-0.2-0.3c-0.6-0.1-1.2-0.1-1.9,0c-0.2,0-0.4-0.1-0.4-0.3l-0.3-1
			c0-0.1-0.2-0.2-0.3-0.2l-1,0.3c-0.1,0-0.1,0.1-0.1,0.1c0,0.1,0,0.1,0,0.2l0.4,1.2c0.1,0.2,0,0.3-0.1,0.4c-1.3,0.8-1.7,2.1-1.3,3.5
			c0.6,1.7,2.2,2,3.8,2.1c1.4,0.1,2,0.4,2.3,1.2c0.1,0.4,0.1,0.8-0.2,1.2c-0.2,0.3-0.6,0.6-1.1,0.7c-0.8,0.2-1.7,0.3-2.4,0.1
			c-0.1,0-0.2,0-0.2,0c-0.1,0-0.1,0.1-0.1,0.2l0,1.2c0,0.1,0.1,0.2,0.2,0.2C15.8,22.9,16.7,22.9,17.6,22.7
			C17.5,22.7,17.6,22.7,17.6,22.7z"/>
	</g>
	<g>
		<path class="st0" d="M16.9,32.7c-6.7,0-12.7-4.3-14.7-10.7c-1.3-3.9-1-8.1,0.9-11.8c1.9-3.7,5.1-6.4,9-7.7
			c1.6-0.5,3.2-0.8,4.8-0.8c6.7,0,12.7,4.3,14.7,10.7c2.7,8.1-1.8,16.9-9.9,19.6C20.2,32.4,18.6,32.7,16.9,32.7z M16.9,3.1
			c-1.5,0-2.9,0.2-4.4,0.7C9,5,6.1,7.5,4.4,10.8c-1.7,3.3-2,7.1-0.8,10.7c1.9,5.8,7.2,9.7,13.3,9.7c1.5,0,2.9-0.2,4.4-0.7
			c7.3-2.4,11.4-10.3,9-17.7C28.4,7,23,3.1,16.9,3.1z"/>
	</g>
	<g>
		<path class="st0" d="M16.9,29.2c-5.2,0-9.9-3.4-11.5-8.3C3.4,14.5,6.8,7.7,13.2,5.6C14.4,5.2,15.7,5,16.9,5
			c5.2,0,9.9,3.4,11.5,8.3c1,3.1,0.8,6.4-0.7,9.2c-1.5,2.9-4,5-7,6C19.5,29,18.2,29.2,16.9,29.2z M16.9,5.8c-1.2,0-2.4,0.2-3.5,0.6
			c-5.9,1.9-9.2,8.4-7.3,14.3c1.5,4.7,5.9,7.8,10.8,7.8c1.2,0,2.4-0.2,3.5-0.6c2.9-0.9,5.2-3,6.6-5.7c1.4-2.7,1.6-5.8,0.7-8.7
			C26.2,8.9,21.9,5.8,16.9,5.8z"/>
	</g>
</g>
</svg>
