<?xml version="1.0" encoding="utf-8"?>
<!-- Generator: Adobe Illustrator 22.0.0, SVG Export Plug-In . SVG Version: 6.00 Build 0)  -->
<svg version="1.1" id="Layer_1" xmlns="http://www.w3.org/2000/svg" xmlns:xlink="http://www.w3.org/1999/xlink" x="0px" y="0px"
	 viewBox="0 0 126.5 116.7" style="enable-background:new 0 0 126.5 116.7;" xml:space="preserve">
<style type="text/css">
	.st0{fill:#FFFFFF;}
</style>
<g>
	<g>
		<path class="st0" d="M24,107.3c-0.9,0-1.6-0.7-1.6-1.6v-8.2c-1.7-1.6-7.4-7.2-12.1-11.8C4.8,80.2,5.2,74,5.3,72.9V48
			c0-0.9,0.7-1.6,1.6-1.6c0.9,0,1.6,0.7,1.6,1.6V73c0,0.1,0,0.2,0,0.2c0,0.2-0.7,5.4,4.1,10.3C18,89,25,95.7,25.1,95.7
			c0.3,0.3,0.5,0.7,0.5,1.1v8.9C25.6,106.6,24.9,107.3,24,107.3z"/>
	</g>
	<g>
		<path class="st0" d="M28,86.8c-0.4,0-0.8-0.2-1.1-0.5L16.1,75c-0.3-0.3-0.4-0.7-0.4-1.1V55.6c0-2.9-0.8-5-2.3-6.2
			c-2.4-1.9-6.2-1.1-6.2-1.1c-0.8,0.2-1.7-0.3-1.9-1.2c-0.2-0.8,0.3-1.7,1.2-1.9c0.2-0.1,5.3-1.2,8.9,1.7c2.3,1.8,3.5,4.8,3.5,8.7
			v17.7l10.3,10.8c0.6,0.6,0.6,1.6-0.1,2.2C28.8,86.7,28.4,86.8,28,86.8z"/>
	</g>
	<g>
		<path class="st0" d="M43.6,107.3c-0.9,0-1.6-0.7-1.6-1.6V88c-4-4.3-13.7-14.5-16.9-16.4c-3-1.7-6.5,3.2-6.5,3.2
			c-0.5,0.7-1.5,0.9-2.2,0.4c-0.7-0.5-0.9-1.5-0.4-2.2c1.9-2.7,6.3-6.6,10.6-4.1c4.4,2.5,17.6,16.8,18.1,17.4
			c0.3,0.3,0.4,0.7,0.4,1.1v18.3C45.1,106.6,44.4,107.3,43.6,107.3z"/>
	</g>
	<g>
		<path class="st0" d="M102.5,107.3c-0.9,0-1.6-0.7-1.6-1.6v-8.9c0-0.4,0.2-0.8,0.5-1.1c0.1-0.1,7.1-6.8,12.5-12.2
			c4.8-4.8,4.2-10,4.1-10.3c0-0.1,0-0.2,0-0.2V48c0-0.9,0.7-1.6,1.6-1.6c0.9,0,1.6,0.7,1.6,1.6v25c0.1,1,0.6,7.2-5.1,12.8
			c-4.6,4.6-10.4,10.2-12.1,11.8v8.2C104.1,106.6,103.4,107.3,102.5,107.3z"/>
	</g>
	<g>
		<path class="st0" d="M98.6,86.8c-0.4,0-0.8-0.1-1.1-0.4c-0.6-0.6-0.7-1.6-0.1-2.2l10.3-10.8V55.6c0-7.7,4.5-9.8,7.2-10.4
			c2.6-0.6,5.1,0,5.2,0c0.8,0.2,1.4,1,1.2,1.9c-0.2,0.8-1,1.4-1.9,1.2c0,0-1.9-0.4-3.8,0c-3.2,0.7-4.7,3.1-4.7,7.3V74
			c0,0.4-0.2,0.8-0.4,1.1L99.7,86.3C99.4,86.7,99,86.8,98.6,86.8z"/>
	</g>
	<g>
		<path class="st0" d="M83,107.3c-0.9,0-1.6-0.7-1.6-1.6V87.4c0-0.4,0.1-0.8,0.4-1.1c0.6-0.6,13.7-14.9,18.1-17.4
			c4.4-2.5,8.7,1.4,10.6,4.1c0.5,0.7,0.3,1.7-0.4,2.2c-0.7,0.5-1.7,0.3-2.2-0.4c-0.1-0.1-3.5-4.9-6.5-3.2
			c-3.2,1.8-12.9,12-16.9,16.4v17.7C84.5,106.6,83.8,107.3,83,107.3z"/>
	</g>
	<g>
		<path class="st0" d="M62.8,80.7c-20.1,0-36.4-16.3-36.4-36.4c0-20.1,16.3-36.4,36.4-36.4s36.4,16.3,36.4,36.4
			C99.2,64.4,82.9,80.7,62.8,80.7z M62.8,11C44.5,11,29.5,26,29.5,44.3c0,18.4,14.9,33.3,33.3,33.3c18.3,0,33.3-14.9,33.3-33.3
			C96.1,26,81.2,11,62.8,11z"/>
	</g>
	<g>
		<path class="st0" d="M62.8,80.7c-7.7,0-14.7-7.4-18.3-19.2c-1.6-5.2-2.4-11.2-2.4-17.2c0-6,0.8-12,2.4-17.2
			C48.1,15.3,55.1,7.9,62.8,7.9c7.7,0,14.7,7.4,18.2,19.2c1.6,5.2,2.4,11.2,2.4,17.2c0,6-0.8,12-2.4,17.2
			C77.5,73.4,70.5,80.7,62.8,80.7z M62.8,11c-6.3,0-12.1,6.5-15.3,17c-1.5,4.9-2.3,10.6-2.3,16.3c0,5.7,0.8,11.4,2.3,16.3
			c3.2,10.5,9,17,15.3,17c6.3,0,12.1-6.5,15.2-17c1.5-4.9,2.3-10.6,2.3-16.3c0-5.7-0.8-11.4-2.3-16.3C74.9,17.5,69.1,11,62.8,11z"/>
	</g>
	<g>
		<path class="st0" d="M62.8,80.7c-0.9,0-1.6-0.7-1.6-1.6V9.5c0-0.9,0.7-1.6,1.6-1.6c0.9,0,1.6,0.7,1.6,1.6v69.7
			C64.4,80,63.7,80.7,62.8,80.7z"/>
	</g>
	<g>
		<path class="st0" d="M62.8,65c-6,0-12-0.8-17.2-2.4C33.8,59,26.4,52,26.4,44.3c0-7.7,7.4-14.7,19.2-18.2c10.4-3.2,24-3.2,34.4,0
			c11.8,3.6,19.2,10.6,19.2,18.2C99.2,52,91.9,59,80,62.6C74.8,64.1,68.8,65,62.8,65z M62.8,26.8c-5.7,0-11.4,0.8-16.3,2.3
			c-10.5,3.2-17,9-17,15.2c0,6.2,6.5,12.1,17,15.3c9.9,3,22.7,3,32.6,0c10.5-3.2,17-9,17-15.3c0-6.3-6.5-12.1-17-15.2
			C74.2,27.6,68.5,26.8,62.8,26.8z"/>
	</g>
	<g>
		<path class="st0" d="M97.6,45.9H28c-0.9,0-1.6-0.7-1.6-1.6c0-0.9,0.7-1.6,1.6-1.6h69.7c0.9,0,1.6,0.7,1.6,1.6
			C99.2,45.2,98.5,45.9,97.6,45.9z"/>
	</g>
	<g>
		<path class="st0" d="M50,108.8H17.4c-0.9,0-1.6-0.7-1.6-1.6c0-0.9,0.7-1.6,1.6-1.6H50c0.9,0,1.6,0.7,1.6,1.6
			C51.5,108.1,50.8,108.8,50,108.8z"/>
	</g>
	<g>
		<path class="st0" d="M109.1,108.8H76.6c-0.9,0-1.6-0.7-1.6-1.6c0-0.9,0.7-1.6,1.6-1.6h32.6c0.9,0,1.6,0.7,1.6,1.6
			C110.7,108.1,110,108.8,109.1,108.8z"/>
	</g>
</g>
</svg>
