<?xml version="1.0" encoding="utf-8"?>
<!-- Generator: Adobe Illustrator 22.0.0, SVG Export Plug-In . SVG Version: 6.00 Build 0)  -->
<svg version="1.1" id="Layer_1" xmlns="http://www.w3.org/2000/svg" xmlns:xlink="http://www.w3.org/1999/xlink" x="0px" y="0px"
	 viewBox="0 0 31.4 30.9" style="enable-background:new 0 0 31.4 30.9;" xml:space="preserve">
<style type="text/css">
	.st0{fill:#FFFFFF;}
	.st1{fill:#002906;}
	.st2{fill:#212121;}
</style>
<g>
	<circle class="st0" cx="15.7" cy="15.5" r="14.9"/>
	<g id="XMLID_4_">
		<path id="XMLID_90_" class="st1" d="M12,13H9.2C9.1,13,9,13.1,9,13.2v9c0,0.1,0.1,0.2,0.2,0.2H12c0.1,0,0.2-0.1,0.2-0.2v-9
			C12.2,13.1,12.1,13,12,13z"/>
		<path id="XMLID_88_" class="st2" d="M10.6,8.5c-1,0-1.8,0.8-1.8,1.8c0,1,0.8,1.8,1.8,1.8c1,0,1.8-0.8,1.8-1.8
			C12.4,9.3,11.6,8.5,10.6,8.5z"/>
		<path id="XMLID_86_" class="st2" d="M19.1,12.8c-1.1,0-1.9,0.5-2.5,1v-0.6c0-0.1-0.1-0.2-0.2-0.2h-2.7c-0.1,0-0.2,0.1-0.2,0.2v9
			c0,0.1,0.1,0.2,0.2,0.2h2.8c0.1,0,0.2-0.1,0.2-0.2v-4.4c0-1.5,0.4-2.1,1.4-2.1c1.1,0,1.2,0.9,1.2,2.2v4.4c0,0.1,0.1,0.2,0.2,0.2
			h2.8c0.1,0,0.2-0.1,0.2-0.2v-4.9C22.7,15,22.2,12.8,19.1,12.8z"/>
	</g>
</g>
</svg>
