<?xml version="1.0" encoding="utf-8"?>
<!-- Generator: Adobe Illustrator 22.0.0, SVG Export Plug-In . SVG Version: 6.00 Build 0)  -->
<svg version="1.1" id="Layer_1" xmlns="http://www.w3.org/2000/svg" xmlns:xlink="http://www.w3.org/1999/xlink" x="0px" y="0px"
	 viewBox="0 0 106.1 98.8" style="enable-background:new 0 0 106.1 98.8;" xml:space="preserve">
<style type="text/css">
	.st0{fill:#F5333F;}
</style>
<g>
	<path class="st0" d="M43.8,0.6c-0.7,0.3-1.2,1-1.2,1.8v21.2l-25,25H2.7c-0.7,0-1.3,0.4-1.7,0.9c-0.4,0.6-0.4,1.3-0.1,1.9l12.4,25.3
		c-0.3,0.3-0.5,0.6-0.7,1c-1.6,2.1-3,3.3-4,3.3c-1,0-2.4-1.1-4-3.3c-0.6-0.9-1.9-1.1-2.7-0.4C1,77.9,0.8,79.2,1.5,80
		c1.5,2.1,4,4.9,7.1,4.9c3.2,0,5.6-2.8,7.2-4.9c1.6-2.1,3-3.3,4-3.3c1,0,2.4,1.1,4,3.3c1.5,2.1,4,4.9,7.1,4.9c3.2,0,5.6-2.8,7.2-4.9
		c1.6-2.1,3-3.3,4-3.3c1,0,2.4,1.1,4,3.3c1.9,2.6,3.6,4,5.4,4.6c1,0.3,2.1-0.2,2.5-1.3c0.3-1-0.2-2.1-1.3-2.5
		c-1-0.3-2.1-1.4-3.4-3.2c-1.5-2.1-4-4.9-7.1-4.9c-3.2,0-5.6,2.8-7.2,4.9c-1.6,2.1-3,3.3-4,3.3c-1,0-2.4-1.1-4-3.3
		c-1.5-2.1-4-4.9-7.1-4.9c-1.3,0-2.4,0.4-3.4,1.1L5.9,52.6h12.5h0h75.7l-10.3,21c-1.8,1-3.3,2.7-4.3,4.1c-1.6,2.1-3,3.3-4,3.3
		s-2.4-1.1-4-3.3c-2.3-3.1-4.4-4.7-6.7-4.9c-1.9-0.2-3.7,0.6-5.5,2.4c-0.8,0.8-0.8,2,0,2.8c0.8,0.8,2,0.8,2.8,0
		c0.9-0.9,1.8-1.4,2.5-1.3c0.7,0.1,1.9,0.7,3.9,3.3c1.5,2.1,4,4.9,7.1,4.9c3.2,0,5.6-2.8,7.2-4.9c1.6-2.1,3-3.3,4-3.3
		c1,0,2.4,1.1,4,3.3c1.5,2.1,4,4.9,7.1,4.9c3.2,0,5.6-2.8,7.2-4.9c0.6-0.9,0.5-2.1-0.4-2.7c-0.9-0.6-2.1-0.5-2.7,0.4
		c-1.6,2.1-3,3.3-4,3.3c-1,0-2.4-1.1-4-3.3c-1.2-1.7-3.1-3.8-5.4-4.6L99,51.5c0.3-0.6,0.3-1.3-0.1-1.9c-0.4-0.6-1-0.9-1.7-0.9h-3.7
		L45.9,1.1C45.4,0.5,44.5,0.3,43.8,0.6z M42.6,48.6H23.1l19.5-19.5V48.6z M46.5,24.4V7.2l41.4,41.4H46.5V24.4z"/>
	<path class="st0" d="M55.2,21.2l-1.6-1.6c-0.8-0.8-2-0.8-2.8,0c-0.8,0.8-0.8,2,0,2.8l1.6,1.6c0.4,0.4,0.9,0.6,1.4,0.6
		c0.5,0,1-0.2,1.4-0.6C56,23.2,56,22,55.2,21.2z"/>
	<path class="st0" d="M68.5,34.5l-9.7-9.7c-0.8-0.8-2-0.8-2.8,0c-0.8,0.8-0.8,2,0,2.8l9.7,9.7c0.4,0.4,0.9,0.6,1.4,0.6
		c0.5,0,1-0.2,1.4-0.6C69.2,36.5,69.2,35.3,68.5,34.5z"/>
	<path class="st0" d="M24,64.1c0,3.1,2.5,5.6,5.6,5.6c3.1,0,5.6-2.5,5.6-5.6c0-3.1-2.5-5.6-5.6-5.6C26.5,58.5,24,61,24,64.1z
		 M31.3,64.1c0,0.9-0.8,1.7-1.7,1.7c-0.9,0-1.7-0.8-1.7-1.7c0-0.9,0.8-1.7,1.7-1.7C30.5,62.4,31.3,63.2,31.3,64.1z"/>
	<path class="st0" d="M50.2,58.5c-3.1,0-5.6,2.5-5.6,5.6c0,3.1,2.5,5.6,5.6,5.6c3.1,0,5.6-2.5,5.6-5.6C55.8,61,53.3,58.5,50.2,58.5z
		 M50.2,65.8c-0.9,0-1.7-0.8-1.7-1.7c0-0.9,0.8-1.7,1.7-1.7c0.9,0,1.7,0.8,1.7,1.7C51.9,65,51.1,65.8,50.2,65.8z"/>
	<path class="st0" d="M76.4,64.1c0-3.1-2.5-5.6-5.6-5.6c-3.1,0-5.6,2.5-5.6,5.6c0,3.1,2.5,5.6,5.6,5.6
		C73.9,69.7,76.4,67.2,76.4,64.1z M69.1,64.1c0-0.9,0.8-1.7,1.7-1.7c0.9,0,1.7,0.8,1.7,1.7c0,0.9-0.8,1.7-1.7,1.7
		C69.8,65.8,69.1,65,69.1,64.1z"/>
	<path class="st0" d="M55.3,82.6c0.4,0.4,0.9,0.6,1.4,0.6c0.5,0,1-0.2,1.3-0.5c0.2-0.2,0.3-0.3,0.5-0.5c0.8-0.8,0.7-2,0-2.8
		c-0.8-0.8-2-0.7-2.8,0c-0.1,0.1-0.2,0.3-0.4,0.4C54.6,80.6,54.6,81.8,55.3,82.6z"/>
	<path class="st0" d="M104.5,90.6c-0.9-0.6-2.1-0.5-2.7,0.4c-1.6,2.1-3,3.3-4,3.3c-1,0-2.4-1.1-4-3.3c-2.3-3.1-4.4-4.6-6.6-4.8
		c-1.1-0.1-2,0.7-2.2,1.8c-0.1,1.1,0.7,2,1.8,2.2c0.7,0.1,1.9,0.7,3.8,3.3c1.5,2.1,4,4.9,7.1,4.9c3.2,0,5.6-2.8,7.2-4.9
		C105.6,92.5,105.4,91.3,104.5,90.6z"/>
	<path class="st0" d="M82,93c0.6,0,1.1-0.2,1.5-0.7c0.1-0.1,0.2-0.2,0.3-0.3c0.7-0.8,0.7-2-0.1-2.8c-0.8-0.7-2-0.7-2.8,0.1
		c-0.1,0.1-0.2,0.3-0.3,0.4c-0.7,0.8-0.6,2.1,0.2,2.8C81.1,92.8,81.5,93,82,93z"/>
	<path class="st0" d="M28,97.4c1,0.6,2,0.8,3,0.8c3.6,0,6.2-3.5,7.2-4.9c1.6-2.1,3-3.3,4-3.3c1,0,2.4,1.1,4,3.3
		c1.5,2.1,4,4.9,7.1,4.9c3.2,0,5.6-2.8,7.2-4.9c1.6-2.1,3-3.3,4-3.3c1,0,2.4,1.1,4,3.3c2.3,3.1,4.4,4.6,6.6,4.9
		c1.8,0.2,3.6-0.5,5.3-2.1c0.8-0.7,0.8-2,0.1-2.8c-0.7-0.8-2-0.8-2.8-0.1c-1.3,1.2-2,1.1-2.3,1.1c-0.7-0.1-1.9-0.7-3.8-3.3
		c-1.5-2.1-4-4.9-7.1-4.9c-3.2,0-5.6,2.8-7.2,4.9c-1.6,2.1-3,3.3-4,3.3c-1,0-2.4-1.1-4-3.3c-1.5-2.1-4-4.9-7.1-4.9
		c-3.2,0-5.6,2.8-7.2,4.9c-3,4.1-4.4,3.3-5,3c-0.9-0.5-2.1-0.2-2.7,0.8C26.7,95.7,27,96.9,28,97.4z"/>
	<path class="st0" d="M26.5,93.8c0.9-0.6,1.1-1.9,0.4-2.7c-0.1-0.2-0.2-0.3-0.3-0.5c-0.7-0.9-1.9-1-2.8-0.4c-0.9,0.7-1,1.9-0.4,2.8
		c0.1,0.1,0.2,0.3,0.3,0.4c0.4,0.5,1,0.8,1.6,0.8C25.8,94.2,26.2,94,26.5,93.8z"/>
	<path class="st0" d="M15.8,93.4c2.9-4,4.3-3.3,4.8-3.1c1,0.5,2.2,0,2.6-0.9c0.5-1,0-2.2-0.9-2.6c-4.8-2.3-8.5,2.7-9.7,4.3
		c-1.6,2.1-3,3.3-4,3.3c-1,0-2.4-1.1-4-3.3C4,90.2,2.8,90,1.9,90.6c-0.9,0.6-1.1,1.9-0.4,2.7c1.5,2.1,4,4.9,7.1,4.9
		C11.8,98.2,14.3,95.5,15.8,93.4z"/>
</g>
</svg>
