<?xml version="1.0" encoding="utf-8"?>
<!-- Generator: Adobe Illustrator 22.0.0, SVG Export Plug-In . SVG Version: 6.00 Build 0)  -->
<svg version="1.1" id="Layer_1" xmlns="http://www.w3.org/2000/svg" xmlns:xlink="http://www.w3.org/1999/xlink" x="0px" y="0px"
	 viewBox="0 0 37.2 40.4" style="enable-background:new 0 0 37.2 40.4;" xml:space="preserve">
<style type="text/css">
	.st0{fill:#F5333F;}
</style>
<g>
	<g>
		<g>
			<g>
				<path class="st0" d="M2.6,39.7h-1v-6.1c0-2.5,1.4-4.7,3.7-5.8l6.3-2.9l1.1-3.4l6.2,3.5l-0.5,0.9L13.2,23l-0.9,2.7l-6.6,3.1
					c-1.9,0.9-3.1,2.8-3.1,4.9V39.7z"/>
			</g>
			<g>
				<path class="st0" d="M35.6,39.7h-1v-6.1c0-2.1-1.2-4-3.1-4.9l-6.6-3.1L24,23l-3.4,1.9L20,24l4.5-2.5l1.1,3.4l6.3,2.9
					c2.2,1,3.7,3.3,3.7,5.8V39.7z"/>
			</g>
			<g>
				<path class="st0" d="M18.7,21.7c-0.9,0-1.7-0.2-2.5-0.7c-1.9-1.1-4.2-2.9-4.2-5V9.4h1V16c0,0.8,0.5,2.4,3.7,4.2
					c1.2,0.7,2.7,0.7,3.9,0c3.2-1.8,3.7-3.4,3.7-4.2V9.3h1V16c0,2.2-2.3,4-4.2,5C20.4,21.5,19.6,21.7,18.7,21.7z"/>
			</g>
			<g>
				<rect x="14.2" y="21.2" class="st0" width="1" height="2"/>
			</g>
			<g>
				<rect x="22.3" y="21.2" class="st0" width="1" height="2"/>
			</g>
			<g>
				<path class="st0" d="M26.3,16l-0.6-0.8l0.8-0.6c0.3-0.2,0.7-0.6,0.7-1l0-0.1c0-0.4,0.1-1.4-0.1-1.6c-0.2-0.1-0.6,0-0.9,0.2
					l-0.6-0.8c0.4-0.4,1.3-0.7,2-0.3c0.7,0.4,0.6,1.5,0.6,2.5l0,0.1c0,0.6-0.5,1.3-1.1,1.8L26.3,16z"/>
			</g>
			<g>
				<path class="st0" d="M11.2,16l-0.8-0.6c-0.7-0.5-1.1-1.1-1.1-1.8l0-0.1c-0.1-1-0.1-2.1,0.6-2.5c0.7-0.4,1.6,0,2,0.3l-0.6,0.8
					C11,12,10.6,11.9,10.4,12c-0.2,0.2-0.1,1.2-0.1,1.6l0,0.1c0,0.4,0.4,0.8,0.7,1l0.8,0.6L11.2,16z"/>
			</g>
		</g>
		<g>
			<polygon class="st0" points="14.9,39.2 13.4,34 11.6,33.4 10.2,26 11.1,25.8 12.5,32.7 14.2,33.2 15.8,38.9 			"/>
		</g>
		<g>
			<polygon class="st0" points="22.3,39.2 21.3,38.9 22.9,33.2 24.6,32.7 26,25.8 27,26 25.5,33.4 23.7,34 			"/>
		</g>
	</g>
	<g>
		<g>
			<polygon class="st0" points="13.4,32 13.4,24.4 16.8,26.5 16.3,27.3 14.4,26.2 14.4,30.2 16.3,29.1 16.8,29.9 			"/>
		</g>
		<g>
			<polygon class="st0" points="23.8,32 20.4,29.9 20.9,29.1 22.8,30.2 22.8,26.2 20.9,27.3 20.4,26.5 23.8,24.4 			"/>
		</g>
		<g>
			<path class="st0" d="M20.3,30.3H17V26h3.2V30.3z M18,29.3h1.3V27H18V29.3z"/>
		</g>
	</g>
	<g>
		<rect x="18.1" y="31.5" class="st0" width="1" height="7.5"/>
	</g>
	<g>
		<path class="st0" d="M22.2,12.4l-0.4-1.1C20.6,8,15.3,8,15.2,8l0-1c0.1,0,1.5,0,3.2,0.4c1.7,0.5,3,1.3,3.8,2.4
			C22.4,9,22.7,8,22.4,7.3L23.3,7c0.3,0.7,0.2,1.6-0.1,2.8c-0.2,0.8-0.5,1.5-0.5,1.5L22.2,12.4z"/>
	</g>
	<g>
		<path class="st0" d="M25.9,11.3l-0.1-1.4C25.5,6.8,22,5.4,22,5.3l0.4-0.9c0.1,0.1,2.9,1.2,4,3.8c0.2-1.1,0.1-2.7-1.5-4.5
			c-1-1.1-4-2.2-6.7-2c-1.2,0.1-2.9,0.4-3.8,1.8l-0.2,0.3l-0.3-0.1c-0.5-0.1-1.6,0.1-2.1,0.6c-1.3,1.2-1.2,2.9-0.7,3.9
			c0,0,0-0.1,0.1-0.1c0.5-0.6,1.1-1,1.9-1v1c-1,0-1.4,1.2-1.4,1.2l-0.2,0.8l-0.6-0.6C9.5,8.2,9,5.4,11,3.5c0.7-0.6,1.9-1,2.7-0.9
			c0.9-1.1,2.4-1.8,4.4-1.9c2.8-0.2,6.1,0.9,7.5,2.3c1.7,1.9,2,3.7,1.8,4.9c-0.1,1.3-0.7,2.1-0.7,2.2L25.9,11.3z"/>
	</g>
</g>
</svg>
