<?xml version="1.0" encoding="utf-8"?>
<!-- Generator: Adobe Illustrator 22.0.0, SVG Export Plug-In . SVG Version: 6.00 Build 0)  -->
<svg version="1.1" id="Layer_1" xmlns="http://www.w3.org/2000/svg" xmlns:xlink="http://www.w3.org/1999/xlink" x="0px" y="0px"
	 viewBox="0 0 33.9 34.3" style="enable-background:new 0 0 33.9 34.3;" xml:space="preserve">
<style type="text/css">
	.st0{fill:#F5333F;}
</style>
<g id="XMLID_72_">
	<g id="XMLID_79_">
		<path id="XMLID_80_" class="st0" d="M17.1,32.8c-0.1,0-0.2,0-0.4-0.1L5.5,27c-1.5-0.8-2.4-2.3-2.4-4V4.7c0-1.8,1.4-3.2,3.2-3.2
			h21.3c1.8,0,3.2,1.4,3.2,3.2v18.4c0,1.7-0.9,3.2-2.4,3.9l0,0l-11,5.6C17.3,32.7,17.2,32.8,17.1,32.8z M6.3,3.1
			c-0.9,0-1.6,0.7-1.6,1.6v18.3c0,1.1,0.6,2,1.5,2.5L17.1,31l10.6-5.5c0.9-0.5,1.5-1.4,1.5-2.5V4.7c0-0.9-0.7-1.6-1.6-1.6H6.3z"/>
	</g>
	<g id="XMLID_77_">
		<path id="XMLID_78_" class="st0" d="M15.6,19.4c-0.2,0-0.4-0.1-0.5-0.2l-4.4-3.9c-0.3-0.3-0.4-0.8-0.1-1.1
			c0.3-0.3,0.8-0.4,1.1-0.1l3.8,3.4l6.5-6.5c0.3-0.3,0.8-0.3,1.1,0c0.3,0.3,0.3,0.8,0,1.1l-7,7C16,19.3,15.8,19.4,15.6,19.4z"/>
	</g>
	<g id="XMLID_73_">
		<path id="XMLID_74_" class="st0" d="M16.9,25.1c-5.5,0-10-4.5-10-10c0-5.5,4.5-10,10-10s10,4.5,10,10
			C26.9,20.6,22.5,25.1,16.9,25.1z M16.9,6.7c-4.6,0-8.4,3.8-8.4,8.4c0,4.6,3.8,8.4,8.4,8.4s8.4-3.8,8.4-8.4
			C25.3,10.5,21.6,6.7,16.9,6.7z"/>
	</g>
</g>
</svg>
