<?xml version="1.0" encoding="utf-8"?>
<!-- Generator: Adobe Illustrator 22.0.0, SVG Export Plug-In . SVG Version: 6.00 Build 0)  -->
<svg version="1.1" id="Layer_1" xmlns="http://www.w3.org/2000/svg" xmlns:xlink="http://www.w3.org/1999/xlink" x="0px" y="0px"
	 viewBox="0 0 115.7 68.6" style="enable-background:new 0 0 115.7 68.6;" xml:space="preserve">
<style type="text/css">
	.st0{fill:#F5333F;}
</style>
<g>
	<path class="st0" d="M100.3,17.3c-0.4-0.6-1-0.9-1.7-0.9H75.1V4.7c0-1.2-0.9-2.1-2.1-2.1H4.6c-1.2,0-2.1,0.9-2.1,2.1v51.5
		c0,1.2,0.9,2.1,2.1,2.1h6.3c1,4.8,5.3,8.5,10.4,8.5c5.1,0,9.4-3.7,10.4-8.5h7.1c1.2,0,2.1-0.9,2.1-2.1c0-1.2-0.9-2.1-2.1-2.1h-7.1
		c-1-4.8-5.3-8.5-10.4-8.5c-5.1,0-9.4,3.7-10.4,8.5H6.7V6.8h64.1v11.7v35.6H46.3c-1.2,0-2.1,0.9-2.1,2.1c0,1.2,0.9,2.1,2.1,2.1H73
		h4.4c1,4.8,5.3,8.5,10.4,8.5c5.1,0,9.4-3.7,10.4-8.5h14.2c1.2,0,2.1-0.9,2.1-2.1V39c0-0.4-0.1-0.8-0.4-1.2L100.3,17.3z M21.3,49.8
		c3.5,0,6.4,2.9,6.4,6.4c0,3.5-2.9,6.4-6.4,6.4c-3.5,0-6.4-2.9-6.4-6.4C14.9,52.6,17.8,49.8,21.3,49.8z M87.7,62.5
		c-3.5,0-6.4-2.9-6.4-6.4c0-3.5,2.9-6.4,6.4-6.4c3.5,0,6.4,2.9,6.4,6.4C94.1,59.7,91.2,62.5,87.7,62.5z M110.2,54.1H98.1
		c-1-4.8-5.3-8.5-10.4-8.5c-5.1,0-9.4,3.7-10.4,8.5h-2.3V20.6h22.4l12.8,19.1V54.1z"/>
	<path class="st0" d="M14.1,26.5h6.1c1.2,0,2.1-0.9,2.1-2.1c0-1.2-0.9-2.1-2.1-2.1h-6.1c-1.2,0-2.1,0.9-2.1,2.1
		C12,25.6,12.9,26.5,14.1,26.5z"/>
	<path class="st0" d="M63.5,22.3H27.4c-1.2,0-2.1,0.9-2.1,2.1c0,1.2,0.9,2.1,2.1,2.1h36.2c1.2,0,2.1-0.9,2.1-2.1
		C65.6,23.3,64.7,22.3,63.5,22.3z"/>
	<path class="st0" d="M63.5,34.3h-6.1c-1.2,0-2.1,0.9-2.1,2.1c0,1.2,0.9,2.1,2.1,2.1h6.1c1.2,0,2.1-0.9,2.1-2.1
		C65.6,35.2,64.7,34.3,63.5,34.3z"/>
	<path class="st0" d="M14.1,38.5h36.2c1.2,0,2.1-0.9,2.1-2.1c0-1.2-0.9-2.1-2.1-2.1H14.1c-1.2,0-2.1,0.9-2.1,2.1
		C12,37.5,12.9,38.5,14.1,38.5z"/>
	<path class="st0" d="M94.5,24.2H81c-1.2,0-2.1,0.9-2.1,2.1v11.4c0,1.2,0.9,2.1,2.1,2.1l21.2,0c0.8,0,1.5-0.4,1.9-1.1
		c0.4-0.7,0.3-1.5-0.1-2.2l-7.6-11.4C95.9,24.5,95.2,24.2,94.5,24.2z M83.1,35.5v-7.2h10.3l4.8,7.2H83.1z"/>
</g>
</svg>
